<svg width="24" height="24" viewBox="0 0 24 24" fill="none" xmlns="http://www.w3.org/2000/svg">
<path d="M21.54 15H17C16.4696 15 15.9609 15.2107 15.5858 15.5858C15.2107 15.9609 15 16.4696 15 17V21.54M7 3.33997V4.99997C7 5.79562 7.31607 6.55868 7.87868 7.12129C8.44129 7.6839 9.20435 7.99997 10 7.99997C10.5304 7.99997 11.0391 8.21068 11.4142 8.58575C11.7893 8.96083 12 9.46953 12 9.99997C12 11.1 12.9 12 14 12C14.5304 12 15.0391 11.7893 15.4142 11.4142C15.7893 11.0391 16 10.5304 16 9.99997C16 8.89997 16.9 7.99997 18 7.99997H21.17M10.9998 21.95V18C10.9998 17.4696 10.7891 16.9609 10.414 16.5858C10.0389 16.2107 9.53024 16 8.9998 16C8.46937 16 7.96066 15.7893 7.58559 15.4142C7.21052 15.0391 6.9998 14.5304 6.9998 14V13C6.9998 12.4696 6.78909 11.9609 6.41402 11.5858C6.03895 11.2107 5.53024 11 4.9998 11H2.0498M22 12C22 17.5228 17.5228 22 12 22C6.47715 22 2 17.5228 2 12C2 6.47715 6.47715 2 12 2C17.5228 2 22 6.47715 22 12Z" stroke="url(#paint0_linear_252_1085)" stroke-width="2" stroke-linecap="round" stroke-linejoin="round"/>
<defs>
<linearGradient id="paint0_linear_252_1085" x1="12" y1="2" x2="12" y2="22" gradientUnits="userSpaceOnUse">
<stop offset="0.14" stop-color="#B16CEA"/>
<stop offset="0.45" stop-color="#FF5E69"/>
<stop offset="0.72" stop-color="#FF8A56"/>
<stop offset="1" stop-color="#FFA84B"/>
</linearGradient>
</defs>
</svg>
