<svg width="712" height="256" viewBox="0 0 712 256" fill="none" xmlns="http://www.w3.org/2000/svg">
<g clip-path="url(#clip0_252_869)">
<path d="M-270.82 413.051C-94.1078 355.931 41.5725 420.129 203.856 483.764C291.482 518.108 380.107 545.962 473.474 517.569C611.896 475.479 702.111 360.83 816.544 281.088C1011.09 145.535 1074.96 435.185 1242.06 469.247C1313.18 483.738 1357.09 434.185 1417.98 409.998C1503.99 375.834 1582.96 433.98 1651.36 481.763" stroke="url(#paint0_linear_252_869)" stroke-miterlimit="10"/>
<path d="M-270.82 378.271C-191.652 348.082 -114.38 341.131 -32.4955 365.498C43.1102 387.991 108.029 433.415 179.38 465.553C263.648 503.513 350.223 536.805 442.437 506.565C588.907 458.525 677.071 328.076 796.605 241.537C990.156 101.393 1046.46 400.123 1205.36 440.417C1285.81 460.808 1332.43 401.688 1400.84 374.654C1493.28 338.105 1579.65 406.33 1651.36 458.012" stroke="url(#paint1_linear_252_869)" stroke-miterlimit="10"/>
<path d="M-270.82 344.697C-199.571 312.405 -128.579 302.351 -53.332 327.589C20.7873 352.443 80.99 404.766 149.266 440.982C228.69 483.123 310.421 525.417 401.815 498.435C555.051 453.242 651.237 306.737 770.156 211.939C972.933 50.2753 1006.58 375.372 1172.71 412.794C1257.95 432.005 1311.03 363.446 1384.23 336.72C1482.69 300.786 1577.14 379.297 1651.33 434.236" stroke="url(#paint2_linear_252_869)" stroke-miterlimit="10"/>
<path d="M-270.82 312.815C-106.153 224.327 -7.25088 328.999 126.866 413.589C203.036 461.629 285.049 517.209 378.39 486.277C529.55 436.185 628.991 285.576 743.578 185.418C817.544 120.783 888.357 105.779 951.712 187.547C1006.66 258.44 1041.95 360.547 1139.73 381.092C1224.87 398.969 1284.99 328.794 1358.04 300.196C1465.52 258.081 1571.94 350.159 1651.36 410.511" stroke="url(#paint3_linear_252_869)" stroke-miterlimit="10"/>
<path d="M-270.82 283.165C-111.331 182.853 -11.941 287.013 113.846 381.554C180.943 431.979 256.908 501.821 347.558 478.147C402.737 463.732 451.663 422.771 493.798 386.607C574.785 317.124 642.01 235.151 718.898 161.745C792.607 91.3645 865.265 63.6639 928.467 156.512C975.573 225.712 1011.71 332.616 1106.41 347.723C1196.44 362.087 1262.34 284.781 1341.3 258.055C1455.2 219.48 1570.01 323.152 1651.36 386.709" stroke="url(#paint4_linear_252_869)" stroke-miterlimit="10"/>
<path d="M-270.82 256.285C-208.644 211.528 -140.035 183.443 -64.2756 210.707C3.18012 234.997 55.6172 291.424 107.465 338.438C165.899 391.428 239.711 485.507 329.413 467.015C379.902 456.601 424.317 417.923 462.043 384.99C545.312 312.276 618.303 228.046 693.166 147.022C763.236 71.1528 840.892 16.5724 906.246 122.168C950.251 193.241 984.415 305.659 1084.21 309.609C1172.79 313.123 1239.35 242.332 1319.18 216.222C1441.64 176.184 1565.86 293.86 1651.39 362.984" stroke="url(#paint5_linear_252_869)" stroke-miterlimit="10"/>
<path d="M-270.82 231.612C-207.004 181.853 -135.909 148.818 -55.3054 177.493C12.7142 201.68 69.0469 256.824 119.331 306.403C171.614 357.983 241.787 459.295 327.388 442.008C375.289 432.338 417.423 393.583 452.74 362.138C533.497 290.193 605.617 208.169 678.583 128.581C745.398 55.7128 823.874 -10.7174 890.151 94.391C933.516 163.155 966.449 272.906 1064.38 274.265C1152.18 275.471 1225.4 211.683 1307.39 189.83C1435 155.794 1559.71 267.366 1651.36 338.644" stroke="url(#paint6_linear_252_869)" stroke-miterlimit="10"/>
<path d="M-270.82 204.116C-200.417 148.689 -125.298 118.885 -39.236 157.358C31.936 189.188 94.2659 249.412 149.343 302.735C198.756 350.596 259.983 431.363 337.896 406.202C385.438 390.839 426.777 349.801 462.248 316.816C533.343 250.72 599.415 179.134 666.486 109.011C730.405 42.1445 807.959 -22.9006 876.67 70.3325C925.545 136.66 956.658 242.743 1054.23 247.591C1141.14 251.9 1225.17 194.523 1308.96 179.134C1435.67 155.845 1553.51 243.256 1651.39 310.609" stroke="url(#paint7_linear_252_869)" stroke-miterlimit="10"/>
<path d="M-270.82 173.568C-195.112 115.756 -117.968 90.3382 -29.5226 135.993C38.2407 170.952 100.776 227.251 156.519 278.625C208.469 326.511 272.26 409.023 350.762 372.5C391.742 353.443 425.47 317.15 457.66 286.448C525.372 221.813 589.42 153.28 655.543 87.0552C723.946 18.5475 801.449 -34.571 872.416 56.5076C921.265 119.219 956.453 217.94 1049.08 222.044C1134.29 225.84 1218.95 184.982 1302.11 171.388C1430.49 150.407 1544.46 215.914 1651.39 279.036" stroke="url(#paint8_linear_252_869)" stroke-miterlimit="10"/>
<path d="M-270.82 140.533C-183.502 77.4885 -100.208 63.2278 -7.22527 121.886C59.5897 164.027 121.356 221.121 181.148 272.598C231.074 315.585 287.227 383.067 357.092 343.978C394.51 323.049 425.65 285.73 455.456 255.542C518.914 191.24 580.706 125.375 646.008 62.92C713.669 -1.79162 791.12 -48.4979 863.138 33.2701C916.908 94.314 954.147 191.677 1046.54 200.5C1127.96 208.271 1216.69 176.416 1296.78 164.002C1424.77 144.175 1537.39 189.445 1651.33 244.718" stroke="url(#paint9_linear_252_869)" stroke-miterlimit="10"/>
<path d="M-270.82 105.625C-176.223 41.9393 -89.2383 35.1168 5.56365 101.752C77.0944 152.024 141.372 215.555 209.392 270.649C256.165 308.506 307.91 360.419 366.37 316.919C405.018 288.167 436.568 244.846 468.655 209.554C522.912 149.92 578.527 91.0822 638.217 36.8609C711.363 -29.5949 790.685 -60.9889 864.343 19.112C918.266 77.7449 959.58 169.259 1048.18 179.185C1132.04 188.573 1222.71 166.541 1305.78 155.127C1427.93 138.353 1536.64 165.669 1651.36 208.169" stroke="url(#paint10_linear_252_869)" stroke-miterlimit="10"/>
<path d="M-270.82 69.3838C-162.973 1.90205 -71.298 9.08373 27.7071 88.1843C102.826 148.202 166.847 218.044 245.144 274.676C298.863 313.508 337.588 335.438 386.617 281.319C469.937 189.343 537.418 84.5165 635.039 5.21076C706.698 -52.9861 785.533 -74.6849 856.936 -6.94673C917.267 50.2755 957.863 138.122 1044.95 158.744C1125.35 177.75 1226.25 159 1307.08 147.971C1426.39 131.684 1534.06 141.251 1651.39 170.183" stroke="url(#paint11_linear_252_869)" stroke-miterlimit="10"/>
<path d="M-270.82 32.4238C-150.056 -38.0845 -51.7173 -15.1802 50.107 75.0776C123.047 139.738 183.711 214.607 266.493 267.725C327.26 306.737 359.245 313.636 400.815 251.515C466.682 153.101 532.984 52.5067 628.94 -20.0791C706.519 -78.789 785.123 -91.9724 860.934 -24.2855C924.058 32.0904 968.986 122.784 1058.25 142.739C1137.42 160.436 1229.81 152.024 1309.62 141.149C1425.49 125.349 1534.34 118.219 1651.39 131.274" stroke="url(#paint12_linear_252_869)" stroke-miterlimit="10"/>
<path d="M-270.82 -4.66424C-139.189 -77.3783 -36.2117 -41.5471 68.1242 57.9442C141.962 128.35 202.831 214.35 293.737 264.262C361.218 301.325 384.9 282.063 417.09 218.531C468.297 117.501 533.061 15.393 627.914 -50.4215C708.21 -106.156 789.429 -107.875 864.855 -43.8298C930.645 12.0587 978.571 100.393 1066.71 125.169C1255.75 178.314 1461.47 98.8796 1651.39 92.2879" stroke="url(#paint13_linear_252_869)" stroke-miterlimit="10"/>
<path d="M-270.82 -41.3162C-205.338 -76.2241 -143.777 -96.9482 -70.5035 -71.5304C-9.8907 -50.4984 39.7528 -6.35703 84.2192 38.6051C157.57 112.832 220.284 212.708 318.008 256.824C391.307 289.911 408.658 245.334 433.39 183.136C473.704 81.6693 534.573 -22.2849 629.683 -81.6873C836.971 -211.188 911.782 50.8396 1076.7 107.651C1269.31 174.005 1463.04 90.2873 1651.39 53.7892" stroke="url(#paint14_linear_252_869)" stroke-miterlimit="10"/>
<path d="M-270.82 -76.9423C-202.519 -113.107 -139.574 -133.267 -64.9675 -105.797C-2.38135 -82.7646 48.2104 -35.6992 93.5483 11.9817C164.848 86.9528 238.583 216.735 344.944 246.59C419.396 267.494 431.134 197.781 449.997 141.662C483.008 43.427 539.904 -64.8874 635.091 -116.852C832.691 -224.73 932.208 17.8296 1081.4 86.3886C1277.12 176.339 1466.65 84.1058 1651.36 16.4446" stroke="url(#paint15_linear_252_869)" stroke-miterlimit="10"/>
<path d="M-270.82 -110.927C-201.852 -148.477 -139.728 -168.867 -63.8143 -142.27C-0.869269 -120.212 50.5683 -70.9919 95.3166 -23.0288C167.924 54.815 245.759 202.68 358.655 224.738C435.389 239.742 446.153 163.027 462.914 105.42C491.696 6.59546 543.518 -102.796 642.984 -148.759C840.866 -240.196 947.586 -7.33181 1093.54 67.9728C1169.53 107.164 1267.92 127.247 1352.58 113.602C1459.89 96.3146 1558.02 32.6802 1651.39 -18.9507" stroke="url(#paint16_linear_252_869)" stroke-miterlimit="10"/>
<path d="M-270.82 -142.731C-197.367 -185.231 -126.375 -209.726 -45.0538 -172.997C15.969 -145.424 64.3824 -94.7424 108.131 -45.5482C173.69 28.1662 256.318 183.469 366.6 195.114C449.613 203.885 460.095 113.166 477.882 51.9168C505.382 -42.7525 554.897 -144.244 654.569 -180.768C850.964 -252.764 964.527 -36.8789 1106.23 47.4796C1177.84 90.1078 1271.43 119.296 1355.19 108.857C1467.39 94.8528 1564.5 13.5977 1651.33 -51.9347" stroke="url(#paint17_linear_252_869)" stroke-miterlimit="10"/>
<path d="M-270.82 -171.74C-201.468 -215.958 -133.192 -246.737 -51.256 -213.624C14.4057 -187.078 66.689 -130.728 111.796 -78.0709C176.279 -2.79197 257.369 151.767 371.931 154.486C453.611 156.41 468.732 64.382 488.005 2.9277C517.812 -92.0238 564.944 -184.128 669.485 -210.982C869.674 -262.434 980.827 -65.0413 1124.07 29.6536C1194.19 76.0265 1287.71 114.269 1373.13 101.932C1484.85 85.773 1574.6 -7.15225 1651.36 -81.6874" stroke="url(#paint18_linear_252_869)" stroke-miterlimit="10"/>
<path d="M-270.82 -197.363C-207.158 -243.556 -141.035 -282.26 -60.0724 -255.124C3.02638 -233.989 52.7212 -182.23 95.1885 -133.139C164.746 -52.7558 234.713 90.2356 354.452 99.3665C445.487 106.292 469.142 17.7524 495.335 -52.2942C531.062 -147.861 580.859 -228.783 690.27 -243.582C884.231 -269.821 995.999 -102.925 1130.76 2.13238C1198.32 54.7891 1289.79 105.214 1378.18 96.5965C1495.43 85.1572 1581.73 -23.9523 1651.36 -107.593" stroke="url(#paint19_linear_252_869)" stroke-miterlimit="10"/>
<path d="M-270.82 -217.574C-207.465 -261.818 -142.137 -298.239 -62.7891 -272.385C-0.997383 -252.251 48.1848 -202.775 90.1396 -155.171C157.723 -78.5325 229.254 68.5884 345.559 72.6152C435.491 75.7187 466.272 -3.99745 498.513 -74.0697C539.853 -163.866 595.801 -246.07 701.906 -260.407C889.075 -285.697 1005.99 -129.779 1138.83 -30.0565C1204 18.8556 1295.94 68.614 1379.64 66.9725C1496.66 64.6641 1583.34 -46.7281 1651.36 -128.035" stroke="url(#paint20_linear_252_869)" stroke-miterlimit="10"/>
<path d="M-270.82 -231.399C-208.465 -274.104 -144.085 -309.525 -66.3003 -285.979C-6.20012 -267.794 42.2645 -221.473 83.5529 -176.126C150.06 -103.053 221.284 42.5293 333.821 43.2218C422.062 43.7604 459.634 -26.517 498.154 -94.9734C545.209 -178.588 606.975 -258.817 709.312 -272.873C889.715 -297.624 1011.58 -157.787 1144.49 -64.7079C1209.03 -19.5149 1299.96 30.9104 1379.82 38.0407C1496.25 48.4285 1584.34 -64.0667 1651.33 -142.449" stroke="url(#paint21_linear_252_869)" stroke-miterlimit="10"/>
<path d="M-270.82 -239.965C-211.002 -280.875 -147.057 -316.245 -72.3487 -297.265C-8.66048 -281.106 41.9313 -232.912 85.2957 -186.257C151.214 -115.338 217.311 16.3932 327.439 11.4943C410.759 7.80094 453.227 -55.5 496.745 -117.801C550.182 -194.336 614.69 -266.101 712.542 -280.003C890.228 -305.267 1014.71 -184.385 1152.95 -98.1538C1216.82 -58.2957 1297.86 -11.0252 1371.44 8.0318C1490.72 38.9128 1581.55 -72.9412 1651.36 -151.939" stroke="url(#paint22_linear_252_869)" stroke-miterlimit="10"/>
<path d="M-270.82 -244.377C-212.642 -284.671 -150.056 -320.81 -76.5775 -305.857C-15.4009 -293.392 34.3195 -250.507 76.9406 -207.443C143.781 -139.936 206.009 -18.6941 312.702 -23.4391C393.639 -27.0299 442.309 -80.3279 491.824 -137.755C551.155 -206.545 619.636 -271.898 713.721 -285.594C883.898 -310.371 1014.3 -213.727 1154.16 -136.832C1223.56 -98.6667 1296.55 -52.0118 1369.41 -21.1307C1486.72 28.6021 1578.93 -79.0198 1651.33 -157.53" stroke="url(#paint23_linear_252_869)" stroke-miterlimit="10"/>
</g>
<defs>
<linearGradient id="paint0_linear_252_869" x1="690.27" y1="245.197" x2="690.27" y2="529.293" gradientUnits="userSpaceOnUse">
<stop stop-color="#333333"/>
<stop offset="1" stop-color="#333333" stop-opacity="0"/>
</linearGradient>
<linearGradient id="paint1_linear_252_869" x1="690.27" y1="204.397" x2="690.27" y2="518.325" gradientUnits="userSpaceOnUse">
<stop stop-color="#333333"/>
<stop offset="1" stop-color="#333333" stop-opacity="0"/>
</linearGradient>
<linearGradient id="paint2_linear_252_869" x1="690.257" y1="167.147" x2="690.257" y2="506.924" gradientUnits="userSpaceOnUse">
<stop stop-color="#333333"/>
<stop offset="1" stop-color="#333333" stop-opacity="0"/>
</linearGradient>
<linearGradient id="paint3_linear_252_869" x1="690.27" y1="131.476" x2="690.27" y2="495.207" gradientUnits="userSpaceOnUse">
<stop stop-color="#333333"/>
<stop offset="1" stop-color="#333333" stop-opacity="0"/>
</linearGradient>
<linearGradient id="paint4_linear_252_869" x1="690.27" y1="97.3044" x2="690.27" y2="482.902" gradientUnits="userSpaceOnUse">
<stop stop-color="#333333"/>
<stop offset="1" stop-color="#333333" stop-opacity="0"/>
</linearGradient>
<linearGradient id="paint5_linear_252_869" x1="690.283" y1="63.4482" x2="690.283" y2="469.386" gradientUnits="userSpaceOnUse">
<stop stop-color="#333333"/>
<stop offset="1" stop-color="#333333" stop-opacity="0"/>
</linearGradient>
<linearGradient id="paint6_linear_252_869" x1="690.27" y1="39.8047" x2="690.27" y2="443.968" gradientUnits="userSpaceOnUse">
<stop stop-color="#333333"/>
<stop offset="1" stop-color="#333333" stop-opacity="0"/>
</linearGradient>
<linearGradient id="paint7_linear_252_869" x1="690.283" y1="23.8782" x2="690.283" y2="410.949" gradientUnits="userSpaceOnUse">
<stop stop-color="#333333"/>
<stop offset="1" stop-color="#333333" stop-opacity="0"/>
</linearGradient>
<linearGradient id="paint8_linear_252_869" x1="690.283" y1="8.07617" x2="690.283" y2="381.563" gradientUnits="userSpaceOnUse">
<stop stop-color="#333333"/>
<stop offset="1" stop-color="#333333" stop-opacity="0"/>
</linearGradient>
<linearGradient id="paint9_linear_252_869" x1="690.257" y1="-10.3521" x2="690.257" y2="355.719" gradientUnits="userSpaceOnUse">
<stop stop-color="#333333"/>
<stop offset="1" stop-color="#333333" stop-opacity="0"/>
</linearGradient>
<linearGradient id="paint10_linear_252_869" x1="690.27" y1="-28.4749" x2="690.27" y2="333.442" gradientUnits="userSpaceOnUse">
<stop stop-color="#333333"/>
<stop offset="1" stop-color="#333333" stop-opacity="0"/>
</linearGradient>
<linearGradient id="paint11_linear_252_869" x1="690.283" y1="-48.9315" x2="690.283" y2="313.652" gradientUnits="userSpaceOnUse">
<stop stop-color="#333333"/>
<stop offset="1" stop-color="#333333" stop-opacity="0"/>
</linearGradient>
<linearGradient id="paint12_linear_252_869" x1="690.283" y1="-69.804" x2="690.283" y2="297.626" gradientUnits="userSpaceOnUse">
<stop stop-color="#333333"/>
<stop offset="1" stop-color="#333333" stop-opacity="0"/>
</linearGradient>
<linearGradient id="paint13_linear_252_869" x1="690.283" y1="-92.0615" x2="690.283" y2="283.007" gradientUnits="userSpaceOnUse">
<stop stop-color="#333333"/>
<stop offset="1" stop-color="#333333" stop-opacity="0"/>
</linearGradient>
<linearGradient id="paint14_linear_252_869" x1="690.283" y1="-117.207" x2="690.283" y2="268.063" gradientUnits="userSpaceOnUse">
<stop stop-color="#333333"/>
<stop offset="1" stop-color="#333333" stop-opacity="0"/>
</linearGradient>
<linearGradient id="paint15_linear_252_869" x1="690.27" y1="-144.107" x2="690.27" y2="250.385" gradientUnits="userSpaceOnUse">
<stop stop-color="#333333"/>
<stop offset="1" stop-color="#333333" stop-opacity="0"/>
</linearGradient>
<linearGradient id="paint16_linear_252_869" x1="690.283" y1="-169.716" x2="690.283" y2="226.644" gradientUnits="userSpaceOnUse">
<stop stop-color="#333333"/>
<stop offset="1" stop-color="#333333" stop-opacity="0"/>
</linearGradient>
<linearGradient id="paint17_linear_252_869" x1="690.257" y1="-195.23" x2="690.257" y2="195.705" gradientUnits="userSpaceOnUse">
<stop stop-color="#333333"/>
<stop offset="1" stop-color="#333333" stop-opacity="0"/>
</linearGradient>
<linearGradient id="paint18_linear_252_869" x1="690.27" y1="-227.544" x2="690.27" y2="154.516" gradientUnits="userSpaceOnUse">
<stop stop-color="#333333"/>
<stop offset="1" stop-color="#333333" stop-opacity="0"/>
</linearGradient>
<linearGradient id="paint19_linear_252_869" x1="690.27" y1="-264.109" x2="690.27" y2="99.749" gradientUnits="userSpaceOnUse">
<stop stop-color="#333333"/>
<stop offset="1" stop-color="#333333" stop-opacity="0"/>
</linearGradient>
<linearGradient id="paint20_linear_252_869" x1="690.27" y1="-281.004" x2="690.27" y2="72.7031" gradientUnits="userSpaceOnUse">
<stop stop-color="#333333"/>
<stop offset="1" stop-color="#333333" stop-opacity="0"/>
</linearGradient>
<linearGradient id="paint21_linear_252_869" x1="690.257" y1="-293.508" x2="690.257" y2="43.2249" gradientUnits="userSpaceOnUse">
<stop stop-color="#333333"/>
<stop offset="1" stop-color="#333333" stop-opacity="0"/>
</linearGradient>
<linearGradient id="paint22_linear_252_869" x1="690.27" y1="-302.532" x2="690.27" y2="13.2906" gradientUnits="userSpaceOnUse">
<stop stop-color="#333333"/>
<stop offset="1" stop-color="#333333" stop-opacity="0"/>
</linearGradient>
<linearGradient id="paint23_linear_252_869" x1="690.257" y1="-309.303" x2="690.257" y2="-8.47781" gradientUnits="userSpaceOnUse">
<stop stop-color="#333333"/>
<stop offset="1" stop-color="#333333" stop-opacity="0"/>
</linearGradient>
<clipPath id="clip0_252_869">
<rect width="1924" height="1286" fill="white" transform="translate(-271.666 -613)"/>
</clipPath>
</defs>
</svg>
