<svg width="60" height="60" viewBox="0 0 60 60" fill="none" xmlns="http://www.w3.org/2000/svg">
<rect x="0.5" y="0.5" width="59" height="59" rx="29.5" fill="#141414"/>
<rect x="0.5" y="0.5" width="59" height="59" rx="29.5" stroke="url(#paint0_linear_252_950)"/>
<path d="M29.65 19.2729C29.8734 19.1753 30.1273 19.1753 30.3507 19.2729C34.6893 21.1685 38.8012 23.4858 42.6347 26.1729C42.9121 26.3673 43.0524 26.7045 42.9947 27.0383C42.937 27.3721 42.6919 27.6427 42.3653 27.7328C41.5662 27.9534 40.774 28.191 39.989 28.4441C36.8028 29.4717 33.7356 30.7647 30.8136 32.297L30.8098 32.299C30.6773 32.3685 30.5451 32.4384 30.4132 32.5089C30.1556 32.6466 29.8462 32.6466 29.5885 32.5089C29.4554 32.4378 29.3219 32.3671 29.1881 32.297C27.7433 31.5393 26.2629 30.8401 24.7502 30.2026V29.9417C24.7502 29.7884 24.8289 29.6524 24.9506 29.5787C26.7066 28.5149 28.5179 27.5333 30.3791 26.6393C30.8147 26.4301 30.9982 25.9073 30.789 25.4717C30.5797 25.0361 30.057 24.8526 29.6214 25.0619C27.7089 25.9805 25.8479 26.989 24.0438 28.082C23.5149 28.4024 23.1593 28.9269 23.0423 29.5145C22.0449 29.1308 21.0344 28.7734 20.0116 28.4436C19.2266 28.1904 18.4344 27.9534 17.6354 27.7328C17.3088 27.6427 17.0636 27.3721 17.006 27.0383C16.9483 26.7044 17.0885 26.3673 17.366 26.1729C21.1994 23.4858 25.3114 21.1685 29.65 19.2729Z" fill="url(#paint1_linear_252_950)"/>
<path d="M31.2379 34.0524C34.0833 32.5321 37.0727 31.2468 40.1804 30.2224C40.337 31.873 40.437 33.54 40.4784 35.2215C40.4873 35.5822 40.2738 35.9114 39.9408 36.0505C36.6144 37.4392 33.4505 39.1398 30.4855 41.1157C30.1917 41.3115 29.8089 41.3115 29.515 41.1157C26.55 39.1398 23.3861 37.4392 20.0598 36.0505C19.7268 35.9114 19.5133 35.5822 19.5222 35.2215C19.5636 33.5399 19.6636 31.8728 19.8202 30.222C20.8947 30.5762 21.9551 30.9616 23.0002 31.377V32.8592C22.4772 33.1618 22.1252 33.7273 22.1252 34.3751C22.1252 34.9529 22.4053 35.4654 22.8372 35.7841C22.7327 36.2281 22.5782 36.6627 22.3735 37.0788C22.9016 37.3281 23.4252 37.5853 23.9442 37.8505C24.2398 37.2494 24.4541 36.6184 24.5871 35.9742C25.1988 35.7015 25.6252 35.0881 25.6252 34.3751C25.6252 33.7273 25.2733 33.1618 24.7502 32.8592V32.107C26.1169 32.7041 27.4556 33.3534 28.7638 34.0524C29.5368 34.4654 30.4649 34.4654 31.2379 34.0524Z" fill="url(#paint2_linear_252_950)"/>
<path d="M21.2062 38.7061C21.6952 38.2171 22.0844 37.6663 22.3735 37.0788C22.9016 37.3281 23.4252 37.5853 23.9442 37.8505C23.5725 38.6063 23.0722 39.315 22.4436 39.9435C22.1019 40.2852 21.5479 40.2852 21.2062 39.9435C20.8645 39.6018 20.8645 39.0478 21.2062 38.7061Z" fill="url(#paint3_linear_252_950)"/>
<defs>
<linearGradient id="paint0_linear_252_950" x1="30" y1="0" x2="30" y2="60" gradientUnits="userSpaceOnUse">
<stop offset="0.14" stop-color="#B16CEA"/>
<stop offset="0.45" stop-color="#FF5E69"/>
<stop offset="0.72" stop-color="#FF8A56"/>
<stop offset="1" stop-color="#FFA84B"/>
</linearGradient>
<linearGradient id="paint1_linear_252_950" x1="30.0003" y1="19.1997" x2="30.0003" y2="41.2626" gradientUnits="userSpaceOnUse">
<stop offset="0.14" stop-color="#B16CEA"/>
<stop offset="0.45" stop-color="#FF5E69"/>
<stop offset="0.72" stop-color="#FF8A56"/>
<stop offset="1" stop-color="#FFA84B"/>
</linearGradient>
<linearGradient id="paint2_linear_252_950" x1="30.0003" y1="19.1997" x2="30.0003" y2="41.2626" gradientUnits="userSpaceOnUse">
<stop offset="0.14" stop-color="#B16CEA"/>
<stop offset="0.45" stop-color="#FF5E69"/>
<stop offset="0.72" stop-color="#FF8A56"/>
<stop offset="1" stop-color="#FFA84B"/>
</linearGradient>
<linearGradient id="paint3_linear_252_950" x1="30.0003" y1="19.1997" x2="30.0003" y2="41.2626" gradientUnits="userSpaceOnUse">
<stop offset="0.14" stop-color="#B16CEA"/>
<stop offset="0.45" stop-color="#FF5E69"/>
<stop offset="0.72" stop-color="#FF8A56"/>
<stop offset="1" stop-color="#FFA84B"/>
</linearGradient>
</defs>
</svg>
