<svg width="60" height="60" viewBox="0 0 60 60" fill="none" xmlns="http://www.w3.org/2000/svg">
<rect x="0.5" y="0.5" width="59" height="59" rx="29.5" fill="#141414"/>
<rect x="0.5" y="0.5" width="59" height="59" rx="29.5" stroke="url(#paint0_linear_252_967)"/>
<path fill-rule="evenodd" clip-rule="evenodd" d="M28.5862 19.7457C29.1092 18.4881 30.8908 18.4881 31.4138 19.7457L33.8428 25.5857L40.1476 26.0911C41.5053 26.2 42.0558 27.8943 41.0214 28.7804L36.2178 32.8952L37.6854 39.0476C38.0014 40.3724 36.5601 41.4196 35.3978 40.7096L30 37.4127L24.6022 40.7096C23.4399 41.4196 21.9986 40.3724 22.3146 39.0476L23.7822 32.8952L18.9786 28.7804C17.9442 27.8943 18.4947 26.2 19.8524 26.0911L26.1572 25.5857L28.5862 19.7457Z" fill="url(#paint1_linear_252_967)"/>
<defs>
<linearGradient id="paint0_linear_252_967" x1="30" y1="0" x2="30" y2="60" gradientUnits="userSpaceOnUse">
<stop offset="0.14" stop-color="#B16CEA"/>
<stop offset="0.45" stop-color="#FF5E69"/>
<stop offset="0.72" stop-color="#FF8A56"/>
<stop offset="1" stop-color="#FFA84B"/>
</linearGradient>
<linearGradient id="paint1_linear_252_967" x1="30" y1="18.8025" x2="30" y2="40.9389" gradientUnits="userSpaceOnUse">
<stop offset="0.14" stop-color="#B16CEA"/>
<stop offset="0.45" stop-color="#FF5E69"/>
<stop offset="0.72" stop-color="#FF8A56"/>
<stop offset="1" stop-color="#FFA84B"/>
</linearGradient>
</defs>
</svg>
