<svg width="61" height="60" viewBox="0 0 61 60" fill="none" xmlns="http://www.w3.org/2000/svg">
<rect x="1" y="0.5" width="59" height="59" rx="29.5" fill="#141414"/>
<rect x="1" y="0.5" width="59" height="59" rx="29.5" stroke="url(#paint0_linear_252_959)"/>
<path fill-rule="evenodd" clip-rule="evenodd" d="M26.125 23.875C26.125 21.4588 28.0838 19.5 30.5 19.5C32.9162 19.5 34.875 21.4588 34.875 23.875C34.875 26.2912 32.9162 28.25 30.5 28.25C28.0838 28.25 26.125 26.2912 26.125 23.875Z" fill="url(#paint1_linear_252_959)"/>
<path fill-rule="evenodd" clip-rule="evenodd" d="M34.875 27.375C34.875 25.442 36.442 23.875 38.375 23.875C40.308 23.875 41.875 25.442 41.875 27.375C41.875 29.308 40.308 30.875 38.375 30.875C36.442 30.875 34.875 29.308 34.875 27.375Z" fill="url(#paint2_linear_252_959)"/>
<path fill-rule="evenodd" clip-rule="evenodd" d="M19.125 27.375C19.125 25.442 20.692 23.875 22.625 23.875C24.558 23.875 26.125 25.442 26.125 27.375C26.125 29.308 24.558 30.875 22.625 30.875C20.692 30.875 19.125 29.308 19.125 27.375Z" fill="url(#paint3_linear_252_959)"/>
<path fill-rule="evenodd" clip-rule="evenodd" d="M23.8615 33.6371C25.2591 31.4518 27.7097 30 30.5 30C33.2906 30 35.7415 31.4522 37.139 33.6379C38.1052 35.149 38.5232 36.9711 38.3271 38.7476C38.2965 39.0252 38.1351 39.2715 37.8929 39.4105C35.7143 40.6606 33.1893 41.375 30.5 41.375C27.8107 41.375 25.2857 40.6606 23.1071 39.4105C22.8649 39.2715 22.7035 39.0252 22.6729 38.7476C22.4768 36.9707 22.895 35.1483 23.8615 33.6371Z" fill="url(#paint4_linear_252_959)"/>
<path d="M22.4293 32.6293C22.4153 32.6509 22.4013 32.6725 22.3874 32.6942C21.2611 34.4554 20.7456 36.5528 20.9038 38.6205C20.1944 38.5128 19.5061 38.3394 18.8455 38.1068L18.7114 38.0595C18.4667 37.9734 18.2958 37.7512 18.2752 37.4926L18.2639 37.3509C18.2547 37.235 18.25 37.1179 18.25 37C18.25 34.6493 20.1039 32.7316 22.4293 32.6293Z" fill="url(#paint5_linear_252_959)"/>
<path d="M40.0966 38.6204C40.2548 36.5532 39.7396 34.4562 38.6136 32.6952C38.5995 32.6732 38.5854 32.6512 38.5711 32.6293C40.8963 32.7319 42.75 34.6495 42.75 37C42.75 37.1179 42.7453 37.235 42.7361 37.3509L42.7248 37.4926C42.7042 37.7512 42.5333 37.9734 42.2886 38.0595L42.1545 38.1068C41.494 38.3394 40.8058 38.5127 40.0966 38.6204Z" fill="url(#paint6_linear_252_959)"/>
<defs>
<linearGradient id="paint0_linear_252_959" x1="30.5" y1="0" x2="30.5" y2="60" gradientUnits="userSpaceOnUse">
<stop offset="0.14" stop-color="#B16CEA"/>
<stop offset="0.45" stop-color="#FF5E69"/>
<stop offset="0.72" stop-color="#FF8A56"/>
<stop offset="1" stop-color="#FFA84B"/>
</linearGradient>
<linearGradient id="paint1_linear_252_959" x1="30.5" y1="19.5" x2="30.5" y2="41.375" gradientUnits="userSpaceOnUse">
<stop offset="0.14" stop-color="#B16CEA"/>
<stop offset="0.45" stop-color="#FF5E69"/>
<stop offset="0.72" stop-color="#FF8A56"/>
<stop offset="1" stop-color="#FFA84B"/>
</linearGradient>
<linearGradient id="paint2_linear_252_959" x1="30.5" y1="19.5" x2="30.5" y2="41.375" gradientUnits="userSpaceOnUse">
<stop offset="0.14" stop-color="#B16CEA"/>
<stop offset="0.45" stop-color="#FF5E69"/>
<stop offset="0.72" stop-color="#FF8A56"/>
<stop offset="1" stop-color="#FFA84B"/>
</linearGradient>
<linearGradient id="paint3_linear_252_959" x1="30.5" y1="19.5" x2="30.5" y2="41.375" gradientUnits="userSpaceOnUse">
<stop offset="0.14" stop-color="#B16CEA"/>
<stop offset="0.45" stop-color="#FF5E69"/>
<stop offset="0.72" stop-color="#FF8A56"/>
<stop offset="1" stop-color="#FFA84B"/>
</linearGradient>
<linearGradient id="paint4_linear_252_959" x1="30.5" y1="19.5" x2="30.5" y2="41.375" gradientUnits="userSpaceOnUse">
<stop offset="0.14" stop-color="#B16CEA"/>
<stop offset="0.45" stop-color="#FF5E69"/>
<stop offset="0.72" stop-color="#FF8A56"/>
<stop offset="1" stop-color="#FFA84B"/>
</linearGradient>
<linearGradient id="paint5_linear_252_959" x1="30.5" y1="19.5" x2="30.5" y2="41.375" gradientUnits="userSpaceOnUse">
<stop offset="0.14" stop-color="#B16CEA"/>
<stop offset="0.45" stop-color="#FF5E69"/>
<stop offset="0.72" stop-color="#FF8A56"/>
<stop offset="1" stop-color="#FFA84B"/>
</linearGradient>
<linearGradient id="paint6_linear_252_959" x1="30.5" y1="19.5" x2="30.5" y2="41.375" gradientUnits="userSpaceOnUse">
<stop offset="0.14" stop-color="#B16CEA"/>
<stop offset="0.45" stop-color="#FF5E69"/>
<stop offset="0.72" stop-color="#FF8A56"/>
<stop offset="1" stop-color="#FFA84B"/>
</linearGradient>
</defs>
</svg>
