<svg width="61" height="60" viewBox="0 0 61 60" fill="none" xmlns="http://www.w3.org/2000/svg">
<rect x="1" y="0.5" width="59" height="59" rx="29.5" fill="#141414"/>
<rect x="1" y="0.5" width="59" height="59" rx="29.5" stroke="url(#paint0_linear_252_942)"/>
<path fill-rule="evenodd" clip-rule="evenodd" d="M29.0862 19.7457C29.6092 18.4881 31.3908 18.4881 31.9138 19.7457L34.3428 25.5857L40.6476 26.0911C42.0053 26.2 42.5558 27.8943 41.5214 28.7804L36.7178 32.8952L38.1854 39.0476C38.5014 40.3724 37.0601 41.4196 35.8978 40.7096L30.5 37.4127L25.1022 40.7096C23.9399 41.4196 22.4986 40.3724 22.8146 39.0476L24.2822 32.8952L19.4786 28.7804C18.4442 27.8943 18.9947 26.2 20.3524 26.0911L26.6572 25.5857L29.0862 19.7457Z" fill="url(#paint1_linear_252_942)"/>
<defs>
<linearGradient id="paint0_linear_252_942" x1="30.5" y1="0" x2="30.5" y2="60" gradientUnits="userSpaceOnUse">
<stop offset="0.14" stop-color="#B16CEA"/>
<stop offset="0.45" stop-color="#FF5E69"/>
<stop offset="0.72" stop-color="#FF8A56"/>
<stop offset="1" stop-color="#FFA84B"/>
</linearGradient>
<linearGradient id="paint1_linear_252_942" x1="30.5" y1="18.8025" x2="30.5" y2="40.9389" gradientUnits="userSpaceOnUse">
<stop offset="0.14" stop-color="#B16CEA"/>
<stop offset="0.45" stop-color="#FF5E69"/>
<stop offset="0.72" stop-color="#FF8A56"/>
<stop offset="1" stop-color="#FFA84B"/>
</linearGradient>
</defs>
</svg>
