<svg width="31" height="30" viewBox="0 0 31 30" fill="none" xmlns="http://www.w3.org/2000/svg">
<path d="M15.6677 2.41064C18.4383 2.41064 21.0954 3.51125 23.0545 5.47033C25.0136 7.42942 26.1142 10.0865 26.1142 12.8571C26.1142 17.2714 23.0124 22.0821 16.8892 27.3406C16.5487 27.6331 16.1146 27.7938 15.6657 27.7934C15.2169 27.793 14.7831 27.6316 14.4431 27.3385L14.0381 26.9871C8.18596 21.8656 5.22131 17.1728 5.22131 12.8571C5.22131 10.0865 6.32192 7.42942 8.281 5.47033C10.2401 3.51125 12.8972 2.41064 15.6677 2.41064ZM15.6677 4.01779C13.3234 4.01779 11.0751 4.94907 9.41742 6.60675C7.75974 8.26444 6.82846 10.5127 6.82846 12.8571C6.82846 16.6092 9.55846 20.9324 15.0935 25.7753L15.4931 26.1214C15.5417 26.1631 15.6037 26.1861 15.6677 26.1861C15.7318 26.1861 15.7938 26.1631 15.8424 26.1214C21.6452 21.1371 24.507 16.6981 24.507 12.8571C24.507 11.6963 24.2784 10.5469 23.8342 9.47443C23.39 8.40199 22.7389 7.42756 21.9181 6.60675C21.0973 5.78595 20.1228 5.13485 19.0504 4.69064C17.978 4.24642 16.8285 4.01779 15.6677 4.01779ZM15.6677 8.83922C16.7333 8.83922 17.7553 9.26252 18.5088 10.016C19.2623 10.7695 19.6856 11.7915 19.6856 12.8571C19.6856 13.9227 19.2623 14.9446 18.5088 15.6981C17.7553 16.4516 16.7333 16.8749 15.6677 16.8749C14.6021 16.8749 13.5802 16.4516 12.8267 15.6981C12.0732 14.9446 11.6499 13.9227 11.6499 12.8571C11.6499 11.7915 12.0732 10.7695 12.8267 10.016C13.5802 9.26252 14.6021 8.83922 15.6677 8.83922ZM15.6677 10.4464C15.0284 10.4464 14.4152 10.7003 13.9631 11.1524C13.511 11.6045 13.257 12.2177 13.257 12.8571C13.257 13.4964 13.511 14.1096 13.9631 14.5617C14.4152 15.0138 15.0284 15.2678 15.6677 15.2678C16.3071 15.2678 16.9203 15.0138 17.3724 14.5617C17.8245 14.1096 18.0785 13.4964 18.0785 12.8571C18.0785 12.2177 17.8245 11.6045 17.3724 11.1524C16.9203 10.7003 16.3071 10.4464 15.6677 10.4464Z" fill="white"/>
</svg>
