<svg width="31" height="30" viewBox="0 0 31 30" fill="none" xmlns="http://www.w3.org/2000/svg">
<path d="M20.1119 18.1838L19.4319 17.5388L20.1119 18.1851V18.1838ZM24.4194 25.3176L23.7382 24.6713L24.4181 25.3176H24.4194ZM22.7619 26.2051L22.8544 27.1363L22.7619 26.2038V26.2051ZM5.3569 8.65635C5.35025 8.5334 5.31945 8.41296 5.26626 8.30191C5.21307 8.19086 5.13852 8.09138 5.04688 8.00914C4.95524 7.92691 4.8483 7.86352 4.73217 7.82262C4.61603 7.78171 4.49298 7.76407 4.37003 7.77072C4.24708 7.77737 4.12664 7.80817 4.01559 7.86136C3.90454 7.91455 3.80506 7.9891 3.72282 8.08074C3.64059 8.17238 3.5772 8.27932 3.53629 8.39545C3.49539 8.51159 3.47775 8.63465 3.4844 8.7576L5.3569 8.65635ZM6.5644 3.8651C6.40023 4.04652 6.3135 4.28494 6.32271 4.52944C6.33193 4.77394 6.43637 5.00515 6.61373 5.1737C6.79109 5.34225 7.02732 5.43478 7.27197 5.43154C7.51663 5.4283 7.75032 5.32954 7.92315 5.15635L6.5644 3.8651ZM13.9969 24.7651C14.1011 24.8323 14.2177 24.8781 14.3398 24.8999C14.4619 24.9218 14.5871 24.9191 14.7081 24.8922C14.8292 24.8653 14.9437 24.8147 15.0451 24.7432C15.1464 24.6717 15.2326 24.5809 15.2986 24.4758C15.3645 24.3708 15.409 24.2538 15.4295 24.1315C15.4499 24.0091 15.4458 23.884 15.4175 23.7632C15.3892 23.6425 15.3373 23.5285 15.2646 23.428C15.192 23.3275 15.1002 23.2424 14.9944 23.1776L13.9969 24.7651ZM19.5581 25.0726C19.3146 25.0217 19.0609 25.0696 18.8527 25.2058C18.6446 25.342 18.499 25.5553 18.4482 25.7988C18.3973 26.0423 18.4452 26.2961 18.5814 26.5043C18.7176 26.7124 18.9309 26.858 19.1744 26.9088L19.5581 25.0726ZM20.2232 19.4301L20.7919 18.8301L19.4319 17.5388L18.8631 18.1388L20.2232 19.4301ZM22.6657 18.5776L25.0532 19.9526L25.9882 18.3276L23.6007 16.9526L22.6657 18.5776ZM25.5144 22.8026L23.7382 24.6713L25.0982 25.9638L26.8732 24.0938L25.5144 22.8026ZM11.1157 19.9488C6.27065 14.8476 5.45815 10.5438 5.3569 8.65635L3.4844 8.7576C3.6094 11.0701 4.5894 15.8001 9.7569 21.2401L11.1157 19.9488ZM12.8356 11.6526L13.1931 11.2751L11.8344 9.98385L11.4757 10.3613L12.8356 11.6526ZM13.4756 6.5751L11.8994 4.34635L10.3682 5.42885L11.9431 7.6576L13.4756 6.5751ZM12.1544 11.0063C11.9294 10.7895 11.7023 10.5749 11.4732 10.3626L11.4706 10.3651L11.4669 10.3688C11.4447 10.3918 11.4238 10.416 11.4044 10.4413C11.2819 10.6035 11.1849 10.7835 11.1169 10.9751C10.9944 11.3188 10.9294 11.7738 11.0119 12.3413C11.1744 13.4563 11.9056 14.9551 13.8144 16.9663L15.1744 15.6738C13.3894 13.7951 12.9494 12.6388 12.8669 12.0688C12.8269 11.7938 12.8669 11.6501 12.8832 11.6038L12.8932 11.5801C12.8829 11.5966 12.8712 11.612 12.8582 11.6263C12.8508 11.6348 12.8433 11.6444 12.8356 11.6526L12.1544 11.0063ZM13.8144 16.9651C15.7181 18.9701 17.1557 19.7576 18.2519 19.9363C18.8156 20.0276 19.2719 19.9538 19.6169 19.8176C19.8081 19.7426 19.9858 19.637 20.1432 19.5051L20.1881 19.4626L20.2057 19.4451C20.2086 19.4426 20.2115 19.4401 20.2144 19.4376L20.2181 19.4338L20.2194 19.4313C20.2194 19.4313 20.2219 19.4301 19.5419 18.7838C18.8619 18.1388 18.8631 18.1376 18.8631 18.1363L18.8657 18.1351L18.8681 18.1313L18.8757 18.1251C18.8945 18.1068 18.9141 18.0893 18.9344 18.0726C18.9457 18.0651 18.9444 18.0676 18.9282 18.0738C18.9032 18.0838 18.7907 18.1238 18.5532 18.0851C18.0506 18.0026 16.9656 17.5601 15.1744 15.6738L13.8144 16.9651ZM11.8994 4.34635C10.6319 2.55385 8.0969 2.2501 6.5644 3.8651L7.92315 5.15635C8.5769 4.46885 9.72815 4.5226 10.3682 5.42885L11.8994 4.34635ZM23.7382 24.6713C23.3894 25.0388 23.0257 25.2363 22.6707 25.2713L22.8544 27.1363C23.7882 27.0451 24.5444 26.5476 25.0982 25.9638L23.7382 24.6726V24.6713ZM13.1931 11.2751C14.4031 10.0013 14.4881 8.00885 13.4756 6.5751L11.9444 7.6576C12.4719 8.40385 12.3906 9.39885 11.8344 9.98385L13.1931 11.2751ZM25.0532 19.9526C26.0794 20.5438 26.2807 21.9963 25.5144 22.8026L26.8732 24.0938C28.5044 22.3763 28.0282 19.5026 25.9882 18.3276L25.0532 19.9526ZM20.7919 18.8301C21.2731 18.3226 22.0244 18.2088 22.6657 18.5776L23.6007 16.9526C22.2269 16.1626 20.5257 16.3888 19.4319 17.5388L20.7919 18.8301ZM14.9944 23.1776C13.7656 22.4051 12.4569 21.3601 11.1157 19.9488L9.7569 21.2401C11.1994 22.7588 12.6281 23.9051 13.9969 24.7651L14.9944 23.1776ZM22.6694 25.2713C21.6282 25.3628 20.5792 25.2958 19.5581 25.0726L19.1744 26.9088C20.3825 27.1705 21.6233 27.2472 22.8544 27.1363L22.6707 25.2713H22.6694Z" fill="white"/>
</svg>
