<svg width="139" height="22" viewBox="0 0 139 22" fill="none" xmlns="http://www.w3.org/2000/svg">
<path d="M10.4315 0.712813C10.8268 -0.237606 12.1732 -0.237604 12.5685 0.712815L14.9016 6.32236C15.0683 6.72303 15.4451 6.9968 15.8776 7.03147L21.9336 7.51698C22.9597 7.59924 23.3757 8.87971 22.594 9.54936L17.98 13.5018C17.6504 13.7841 17.5065 14.227 17.6072 14.6491L19.0168 20.5587C19.2557 21.56 18.1664 22.3514 17.288 21.8148L12.1032 18.648C11.7329 18.4218 11.2671 18.4218 10.8968 18.648L5.71203 21.8148C4.83358 22.3514 3.74435 21.56 3.98318 20.5587L5.39284 14.6491C5.49353 14.227 5.3496 13.7841 5.02004 13.5018L0.406022 9.54936C-0.375726 8.87971 0.0403281 7.59924 1.06639 7.51698L7.12236 7.03147C7.55492 6.9968 7.93172 6.72303 8.09837 6.32236L10.4315 0.712813Z" fill="url(#paint0_linear_252_746)"/>
<path d="M39.4315 0.712813C39.8268 -0.237606 41.1732 -0.237604 41.5685 0.712815L43.9016 6.32236C44.0683 6.72303 44.4451 6.9968 44.8776 7.03147L50.9336 7.51698C51.9597 7.59924 52.3757 8.87971 51.594 9.54936L46.98 13.5018C46.6504 13.7841 46.5065 14.227 46.6072 14.6491L48.0168 20.5587C48.2557 21.56 47.1664 22.3514 46.288 21.8148L41.1032 18.648C40.7329 18.4218 40.2671 18.4218 39.8968 18.648L34.712 21.8148C33.8336 22.3514 32.7443 21.56 32.9832 20.5587L34.3928 14.6491C34.4935 14.227 34.3496 13.7841 34.02 13.5018L29.406 9.54936C28.6243 8.87971 29.0403 7.59924 30.0664 7.51698L36.1224 7.03147C36.5549 6.9968 36.9317 6.72303 37.0984 6.32236L39.4315 0.712813Z" fill="url(#paint1_linear_252_746)"/>
<path d="M68.4315 0.712813C68.8268 -0.237606 70.1732 -0.237604 70.5685 0.712815L72.9016 6.32236C73.0683 6.72303 73.4451 6.9968 73.8776 7.03147L79.9336 7.51698C80.9597 7.59924 81.3757 8.87971 80.594 9.54936L75.98 13.5018C75.6504 13.7841 75.5065 14.227 75.6072 14.6491L77.0168 20.5587C77.2557 21.56 76.1664 22.3514 75.288 21.8148L70.1032 18.648C69.7329 18.4218 69.2671 18.4218 68.8968 18.648L63.712 21.8148C62.8336 22.3514 61.7443 21.56 61.9832 20.5587L63.3928 14.6491C63.4935 14.227 63.3496 13.7841 63.02 13.5018L58.406 9.54936C57.6243 8.87971 58.0403 7.59924 59.0664 7.51698L65.1224 7.03147C65.5549 6.9968 65.9317 6.72303 66.0984 6.32236L68.4315 0.712813Z" fill="url(#paint2_linear_252_746)"/>
<path d="M97.4315 0.712813C97.8268 -0.237606 99.1732 -0.237604 99.5685 0.712815L101.902 6.32236C102.068 6.72303 102.445 6.9968 102.878 7.03147L108.934 7.51698C109.96 7.59924 110.376 8.87971 109.594 9.54936L104.98 13.5018C104.65 13.7841 104.506 14.227 104.607 14.6491L106.017 20.5587C106.256 21.56 105.166 22.3514 104.288 21.8148L99.1032 18.648C98.7329 18.4218 98.2671 18.4218 97.8968 18.648L92.712 21.8148C91.8336 22.3514 90.7443 21.56 90.9832 20.5587L92.3928 14.6491C92.4935 14.227 92.3496 13.7841 92.02 13.5018L87.406 9.54936C86.6243 8.87971 87.0403 7.59924 88.0664 7.51698L94.1224 7.03147C94.5549 6.9968 94.9317 6.72303 95.0984 6.32236L97.4315 0.712813Z" fill="url(#paint3_linear_252_746)"/>
<path d="M126.432 0.712813C126.827 -0.237606 128.173 -0.237604 128.568 0.712815L130.902 6.32236C131.068 6.72303 131.445 6.9968 131.878 7.03147L137.934 7.51698C138.96 7.59924 139.376 8.87971 138.594 9.54936L133.98 13.5018C133.65 13.7841 133.506 14.227 133.607 14.6491L135.017 20.5587C135.256 21.56 134.166 22.3514 133.288 21.8148L128.103 18.648C127.733 18.4218 127.267 18.4218 126.897 18.648L121.712 21.8148C120.834 22.3514 119.744 21.56 119.983 20.5587L121.393 14.6491C121.494 14.227 121.35 13.7841 121.02 13.5018L116.406 9.54936C115.624 8.87971 116.04 7.59924 117.066 7.51698L123.122 7.03147C123.555 6.9968 123.932 6.72303 124.098 6.32236L126.432 0.712813Z" fill="url(#paint4_linear_252_746)"/>
<defs>
<linearGradient id="paint0_linear_252_746" x1="11.5" y1="0" x2="11.5" y2="21.9881" gradientUnits="userSpaceOnUse">
<stop offset="0.14" stop-color="#B16CEA"/>
<stop offset="0.45" stop-color="#FF5E69"/>
<stop offset="0.72" stop-color="#FF8A56"/>
<stop offset="1" stop-color="#FFA84B"/>
</linearGradient>
<linearGradient id="paint1_linear_252_746" x1="34.5" y1="-3.16287e-07" x2="52" y2="24.5" gradientUnits="userSpaceOnUse">
<stop offset="0.0439996" stop-color="#B16CEA"/>
<stop offset="0.324" stop-color="#FF8A56"/>
<stop offset="0.479" stop-color="#FF5E69"/>
<stop offset="1" stop-color="#FFA84B"/>
</linearGradient>
<linearGradient id="paint2_linear_252_746" x1="62.5" y1="-4.80639e-07" x2="81" y2="22" gradientUnits="userSpaceOnUse">
<stop offset="0.14" stop-color="#B16CEA"/>
<stop offset="0.444" stop-color="#FFA84B"/>
<stop offset="0.649" stop-color="#FF8A56"/>
<stop offset="0.804" stop-color="#FF5E69"/>
</linearGradient>
<linearGradient id="paint3_linear_252_746" x1="98.5" y1="0" x2="98.5" y2="21.9881" gradientUnits="userSpaceOnUse">
<stop offset="0.0839996" stop-color="#FF8A56"/>
<stop offset="0.204" stop-color="#FF5E69"/>
<stop offset="0.564" stop-color="#B16CEA"/>
<stop offset="0.694" stop-color="#FFA84B"/>
</linearGradient>
<linearGradient id="paint4_linear_252_746" x1="122" y1="-1.87263e-07" x2="136" y2="22" gradientUnits="userSpaceOnUse">
<stop offset="0.0289996" stop-color="#FFA84B"/>
<stop offset="0.319" stop-color="#FF5E69"/>
<stop offset="0.589" stop-color="#FF8A56"/>
<stop offset="0.779" stop-color="#B16CEA"/>
</linearGradient>
</defs>
</svg>
