<svg width="64" height="30" viewBox="0 0 64 30" fill="none" xmlns="http://www.w3.org/2000/svg">
<g clip-path="url(#clip0_252_836)">
<path d="M49.9649 30.0166C42.2135 30.0166 35.9298 23.3009 35.9298 15.0166C35.9298 6.73231 42.2135 0.0166626 49.9649 0.0166626C57.7163 0.0166626 64 6.73231 64 15.0166C64 23.3009 57.7163 30.0166 49.9649 30.0166Z" fill="url(#paint0_linear_252_836)"/>
<path d="M63.9999 45C56.2486 45 49.9649 38.2843 49.9649 30C49.9649 21.7157 56.2486 15 63.9999 15C71.7513 15 78.035 21.7157 78.035 30C78.035 38.2843 71.7513 45 63.9999 45Z" fill="#141414"/>
<path d="M35.9298 45C28.1784 45 21.8947 38.2843 21.8947 30C21.8947 21.7157 28.1784 15 35.9298 15C43.6811 15 49.9648 21.7157 49.9648 30C49.9648 38.2843 43.6811 45 35.9298 45Z" fill="#141414"/>
<path d="M63.9999 15C56.2486 15 49.9649 8.28427 49.9649 0C49.9649 -8.28427 56.2486 -15 63.9999 -15C71.7513 -15 78.035 -8.28427 78.035 0C78.035 8.28427 71.7513 15 63.9999 15Z" fill="#141414"/>
<path d="M35.9298 15C28.1784 15 21.8947 8.28427 21.8947 0C21.8947 -8.28427 28.1784 -15 35.9298 -15C43.6811 -15 49.9648 -8.28427 49.9648 0C49.9648 8.28427 43.6811 15 35.9298 15Z" fill="#141414"/>
</g>
<g clip-path="url(#clip1_252_836)">
<path d="M21.8949 24.0097C17.244 24.0097 13.4738 19.9803 13.4738 15.0097C13.4738 10.0392 17.244 6.00977 21.8949 6.00977C26.5457 6.00977 30.3159 10.0392 30.3159 15.0097C30.3159 19.9803 26.5457 24.0097 21.8949 24.0097Z" fill="url(#paint1_linear_252_836)"/>
<path d="M30.3158 33C25.6649 33 21.8947 28.9706 21.8947 24C21.8947 19.0294 25.6649 15 30.3158 15C34.9666 15 38.7368 19.0294 38.7368 24C38.7368 28.9706 34.9666 33 30.3158 33Z" fill="#141414"/>
<path d="M13.4736 33C8.82278 33 5.05255 28.9706 5.05255 24C5.05255 19.0294 8.82278 15 13.4736 15C18.1244 15 21.8947 19.0294 21.8947 24C21.8947 28.9706 18.1244 33 13.4736 33Z" fill="#141414"/>
<path d="M30.3158 15C25.6649 15 21.8947 10.9706 21.8947 6C21.8947 1.02944 25.6649 -3 30.3158 -3C34.9666 -3 38.7368 1.02944 38.7368 6C38.7368 10.9706 34.9666 15 30.3158 15Z" fill="#141414"/>
<path d="M13.4736 15C8.82278 15 5.05255 10.9706 5.05255 6C5.05255 1.02944 8.82278 -3 13.4736 -3C18.1244 -3 21.8947 1.02944 21.8947 6C21.8947 10.9706 18.1244 15 13.4736 15Z" fill="#141414"/>
</g>
<g clip-path="url(#clip2_252_836)">
<path d="M3.92979 19.2046C1.75941 19.2046 -3.05176e-05 17.3242 -3.05176e-05 15.0046C-3.05176e-05 12.685 1.75941 10.8046 3.92979 10.8046C6.10018 10.8046 7.85962 12.685 7.85962 15.0046C7.85962 17.3242 6.10018 19.2046 3.92979 19.2046Z" fill="url(#paint2_linear_252_836)"/>
<path d="M7.8596 23.4C5.68922 23.4 3.92978 21.5196 3.92978 19.2C3.92978 16.8804 5.68922 15 7.8596 15C10.03 15 11.7894 16.8804 11.7894 19.2C11.7894 21.5196 10.03 23.4 7.8596 23.4Z" fill="#141414"/>
<path d="M-1.52588e-05 23.4C-2.1704 23.4 -3.92984 21.5196 -3.92984 19.2C-3.92984 16.8804 -2.1704 15 -1.52588e-05 15C2.17037 15 3.92981 16.8804 3.92981 19.2C3.92981 21.5196 2.17037 23.4 -1.52588e-05 23.4Z" fill="#141414"/>
<path d="M7.8596 15C5.68922 15 3.92978 13.1196 3.92978 10.8C3.92978 8.48038 5.68922 6.59998 7.8596 6.59998C10.03 6.59998 11.7894 8.48038 11.7894 10.8C11.7894 13.1196 10.03 15 7.8596 15Z" fill="#141414"/>
<path d="M-1.52588e-05 15C-2.1704 15 -3.92984 13.1196 -3.92984 10.8C-3.92984 8.48038 -2.1704 6.59998 -1.52588e-05 6.59998C2.17037 6.59998 3.92981 8.48038 3.92981 10.8C3.92981 13.1196 2.17037 15 -1.52588e-05 15Z" fill="#141414"/>
</g>
<defs>
<linearGradient id="paint0_linear_252_836" x1="49.9649" y1="0.0166626" x2="49.9649" y2="30.0166" gradientUnits="userSpaceOnUse">
<stop offset="0.14" stop-color="#B16CEA"/>
<stop offset="0.45" stop-color="#FF5E69"/>
<stop offset="0.72" stop-color="#FF8A56"/>
<stop offset="1" stop-color="#FFA84B"/>
</linearGradient>
<linearGradient id="paint1_linear_252_836" x1="21.8949" y1="6.00977" x2="21.8949" y2="24.0097" gradientUnits="userSpaceOnUse">
<stop offset="0.14" stop-color="#B16CEA"/>
<stop offset="0.45" stop-color="#FF5E69"/>
<stop offset="0.72" stop-color="#FF8A56"/>
<stop offset="1" stop-color="#FFA84B"/>
</linearGradient>
<linearGradient id="paint2_linear_252_836" x1="3.92979" y1="10.8046" x2="3.92979" y2="19.2046" gradientUnits="userSpaceOnUse">
<stop offset="0.14" stop-color="#B16CEA"/>
<stop offset="0.45" stop-color="#FF5E69"/>
<stop offset="0.72" stop-color="#FF8A56"/>
<stop offset="1" stop-color="#FFA84B"/>
</linearGradient>
<clipPath id="clip0_252_836">
<rect width="28.0702" height="30" fill="white" transform="matrix(-1 0 0 1 64 0)"/>
</clipPath>
<clipPath id="clip1_252_836">
<rect width="16.8421" height="18" fill="white" transform="matrix(-1 0 0 1 30.3158 6)"/>
</clipPath>
<clipPath id="clip2_252_836">
<rect width="7.85965" height="8.4" fill="white" transform="matrix(-1 0 0 1 7.85962 10.8)"/>
</clipPath>
</defs>
</svg>
