<svg width="20" height="20" viewBox="0 0 20 20" fill="none" xmlns="http://www.w3.org/2000/svg">
<path d="M18.3333 4.83351C17.7069 5.10525 17.0445 5.28489 16.3667 5.36684C17.0818 4.93961 17.6177 4.26749 17.875 3.47517C17.203 3.87523 16.4673 4.15709 15.7 4.30851C15.1871 3.75232 14.5041 3.38209 13.7582 3.25588C13.0122 3.12968 12.2455 3.25464 11.5782 3.61117C10.9109 3.96769 10.3808 4.53562 10.071 5.22587C9.76129 5.91613 9.68941 6.68967 9.86666 7.42517C8.50785 7.35645 7.1787 7.00264 5.96554 6.38673C4.75239 5.77082 3.68237 4.90659 2.825 3.85017C2.52428 4.37532 2.36626 4.97003 2.36666 5.57517C2.3656 6.13716 2.50351 6.69069 2.76813 7.18648C3.03274 7.68227 3.41585 8.10493 3.88333 8.41684C3.33998 8.40206 2.80824 8.25626 2.33333 7.99184V8.03351C2.3374 8.82092 2.61333 9.58275 3.11443 10.1901C3.61553 10.7975 4.31104 11.2132 5.08333 11.3668C4.78604 11.4573 4.47739 11.505 4.16666 11.5085C3.95157 11.506 3.73702 11.4865 3.525 11.4502C3.74492 12.1275 4.17052 12.7195 4.74256 13.1436C5.3146 13.5678 6.00464 13.8031 6.71666 13.8168C5.51433 14.7629 4.0299 15.2792 2.5 15.2835C2.22144 15.2844 1.94311 15.2677 1.66666 15.2335C3.22869 16.2421 5.04901 16.7774 6.90833 16.7752C8.19141 16.7885 9.46428 16.546 10.6526 16.0619C11.8409 15.5778 12.9208 14.8617 13.8293 13.9556C14.7378 13.0494 15.4566 11.9713 15.9438 10.7843C16.431 9.59719 16.6767 8.32495 16.6667 7.04184C16.6667 6.90017 16.6667 6.75017 16.6667 6.60017C17.3206 6.11252 17.8846 5.5147 18.3333 4.83351Z" fill="white"/>
</svg>
