<svg width="20" height="20" viewBox="0 0 20 20" fill="none" xmlns="http://www.w3.org/2000/svg">
<path d="M19.1667 8.0919C19.2079 6.89911 18.947 5.71525 18.4083 4.65023C18.0428 4.21323 17.5356 3.91832 16.975 3.8169C14.6563 3.6065 12.3279 3.52027 10 3.55856C7.68054 3.51853 5.36059 3.60198 3.05 3.80856C2.59319 3.89166 2.17043 4.10593 1.83334 4.42523C1.08334 5.1169 1 6.30023 0.916669 7.30023C0.795762 9.0982 0.795762 10.9023 0.916669 12.7002C0.940777 13.2631 1.02458 13.8218 1.16667 14.3669C1.26715 14.7878 1.47044 15.1772 1.75834 15.5002C2.09773 15.8364 2.53032 16.0629 3 16.1502C4.7966 16.372 6.60685 16.4639 8.41667 16.4252C11.3333 16.4669 13.8917 16.4252 16.9167 16.1919C17.3979 16.1099 17.8427 15.8832 18.1917 15.5419C18.425 15.3085 18.5992 15.0228 18.7 14.7086C18.998 13.7941 19.1444 12.837 19.1333 11.8752C19.1667 11.4086 19.1667 8.5919 19.1667 8.0919ZM8.11667 12.3752V7.2169L13.05 9.80856C11.6667 10.5752 9.84167 11.4419 8.11667 12.3752Z" fill="white"/>
</svg>
